# xmcd CD database file
#
# Track frame offsets:
#	150
#	14805
#	28655
#	37813
#	52016
#	62473
#	74895
#	88112
#	100681
#	119321
#	134964
#	149251
#	160850
#	181308
#	193414
#	206723
#	221948
#	240187
#	249065
#	262169
#	275941
#	294125
#	312177
#
# Disc length: 4415 seconds
#
# Revision: 0
# Processed by: cddbd v1.5.2PL0 Copyright (c) Steve Scherf et al.
# Submitted via: CDex 1.70beta2
#
DISCID=6b113d17
DTITLE=Dr Feelgood - Looking Back[CD03]
DYEAR=1995
DGENRE=Blues
TTITLE0=01 Waiting For Saturday Night
TTITLE1=02 Trying To Live My Life Without You
TTITLE2=03 She's The One
TTITLE3=04 Crazy About Girls
TTITLE4=05 Monkey
TTITLE5=06 Rat Race
TTITLE6=07 You Don't Love Me
TTITLE7=08 She's In The Middle
TTITLE8=09 Dangerous
TTITLE9=10 I Can't Be Satisfied
TTITLE10=11 Close But No Cigar
TTITLE11=12 My Way
TTITLE12=13 Rock Me Baby
TTITLE13=14 Tore Down
TTITLE14=15 Dust My Broom
TTITLE15=16 I Love You So You're Mine
TTITLE16=17 Don't Wait Up
TTITLE17=18 Come Over Here
TTITLE18=19 Get Rhythm
TTITLE19=20 I'm A Real Man
TTITLE20=21 See You Later Alligator
TTITLE21=22 Quit While You're Behind
TTITLE22=24 (I Wanna) Make Love To You
EXTD=YEAR: 1995
EXTT0=
EXTT1=
EXTT2=
EXTT3=
EXTT4=
EXTT5=
EXTT6=
EXTT7=
EXTT8=
EXTT9=
EXTT10=
EXTT11=
EXTT12=
EXTT13=
EXTT14=
EXTT15=
EXTT16=
EXTT17=
EXTT18=
EXTT19=
EXTT20=
EXTT21=
EXTT22=
PLAYORDER=
